<?xml version="1.0" standalone="no"?>
<!DOCTYPE svg PUBLIC "-//W3C//DTD SVG 20010904//EN"
 "http://www.w3.org/TR/2001/REC-SVG-20010904/DTD/svg10.dtd">
<svg version="1.0" xmlns="http://www.w3.org/2000/svg"
 width="180.000000pt" height="180.000000pt" viewBox="0 0 180.000000 180.000000"
 preserveAspectRatio="xMidYMid meet">
<metadata>
Created by potrace 1.14, written by Peter Selinger 2001-2017
</metadata>
<g transform="translate(0.000000,180.000000) scale(0.100000,-0.100000)"
fill="#000000" stroke="none">
<path d="M0 900 l0 -900 900 0 900 0 0 900 0 900 -900 0 -900 0 0 -900z m1300
350 l0 -100 -235 0 -235 0 0 -100 0 -100 205 0 205 0 0 -105 0 -105 -205 0
-205 0 0 -155 0 -155 -130 0 -130 0 0 35 c0 35 0 35 45 35 33 0 45 4 45 15 0
11 -12 15 -45 15 l-45 0 0 410 0 410 365 0 365 0 0 -100z"/>
</g>
</svg>
